<?xml version="1.0" standalone="no"?>
<!DOCTYPE svg PUBLIC "-//W3C//DTD SVG 20010904//EN"
 "http://www.w3.org/TR/2001/REC-SVG-20010904/DTD/svg10.dtd">
<svg version="1.0" xmlns="http://www.w3.org/2000/svg"
 width="232.000000pt" height="217.000000pt" viewBox="0 0 232.000000 217.000000"
 preserveAspectRatio="xMidYMid meet">

<g transform="translate(0.000000,217.000000) scale(0.100000,-0.100000)"
fill="#000000" stroke="none">
<path d="M810 2142 c-116 -39 -204 -118 -259 -232 -35 -72 -36 -79 -36 -185 1
-94 4 -118 24 -163 13 -29 22 -54 20 -55 -2 -2 -34 -22 -71 -46 -79 -50 -200
-174 -246 -253 -37 -63 -81 -180 -82 -218 -1 -49 -15 -55 -45 -16 -53 69 -69
171 -44 273 13 48 3 66 -31 60 -43 -7 -49 -214 -10 -306 20 -46 87 -121 108
-121 5 0 16 -36 25 -80 30 -154 129 -314 257 -414 33 -26 60 -52 60 -57 0 -5
-22 -59 -50 -120 -83 -184 -73 -199 121 -199 148 0 153 2 202 95 30 56 34 60
67 59 19 0 81 -10 137 -22 175 -38 403 -24 538 32 20 9 41 13 46 10 5 -3 22
-31 38 -62 16 -31 41 -68 56 -82 25 -23 34 -25 151 -28 197 -6 207 10 124 203
l-50 117 105 103 105 102 73 5 c116 8 145 39 168 189 18 120 -9 256 -53 260
-7 1 -33 2 -57 3 l-45 1 -21 60 c-57 158 -130 261 -235 332 -38 27 -68 53 -66
58 1 6 36 36 78 67 80 61 114 111 104 154 -10 39 -47 46 -206 42 l-145 -3 -86
-47 -86 -48 -62 11 -62 11 6 52 c22 170 -81 353 -242 433 -69 34 -84 38 -172
40 -72 2 -110 -2 -151 -15z m160 -137 c0 -8 14 -17 34 -20 48 -10 93 -39 111
-75 9 -18 15 -34 12 -36 -2 -2 -28 -8 -57 -14 -52 -10 -55 -9 -77 17 l-22 28
-1 -48 c0 -37 4 -49 18 -54 74 -25 122 -54 137 -84 22 -42 21 -102 -2 -142
-22 -37 -86 -77 -125 -77 -24 0 -28 -4 -28 -30 0 -25 -4 -30 -25 -30 -21 0
-25 5 -25 30 0 24 -4 30 -22 30 -60 1 -134 57 -152 117 -8 24 -4 26 82 38 38
5 43 3 51 -18 5 -12 16 -29 25 -36 14 -12 16 -8 16 42 l0 55 -48 16 c-66 22
-103 63 -109 119 -9 76 40 136 123 152 20 3 34 12 34 20 0 9 10 15 25 15 15 0
25 -6 25 -15z m990 -359 c0 -14 -46 -59 -112 -107 -98 -71 -95 -120 13 -194
100 -68 171 -169 220 -314 27 -77 42 -91 99 -91 31 0 52 -5 61 -16 35 -43 16
-258 -27 -301 -20 -20 -33 -23 -98 -23 -75 0 -76 0 -108 -37 -44 -50 -72 -77
-146 -145 -34 -31 -62 -64 -62 -75 0 -10 24 -74 54 -143 l53 -125 -104 -3
c-60 -1 -111 2 -123 8 -11 6 -36 42 -55 81 -49 96 -58 99 -181 58 -89 -29
-114 -33 -244 -37 -125 -3 -158 -1 -240 19 -125 29 -186 34 -206 18 -9 -7 -31
-43 -50 -81 l-34 -68 -115 0 c-63 0 -115 4 -115 9 0 5 22 57 50 117 27 60 50
117 50 127 0 22 -28 77 -39 77 -5 0 -40 29 -79 65 -164 152 -240 359 -198 539
37 156 157 319 305 415 l63 41 51 -46 c28 -25 65 -53 81 -62 l31 -17 -65 -3
-65 -3 3 -39 4 -40 334 0 334 0 0 40 0 40 -87 0 -87 0 45 28 c56 37 131 117
159 171 l21 42 82 -7 83 -6 87 46 c78 41 96 46 155 47 37 1 94 4 127 8 66 7
75 6 75 -13z"/>
<path d="M903 1893 c-18 -7 -16 -48 2 -63 13 -11 15 -7 15 29 0 22 -1 41 -2
40 -2 0 -9 -3 -15 -6z"/>
<path d="M970 1635 c0 -30 4 -45 13 -45 37 0 51 62 18 80 -30 15 -31 14 -31
-35z"/>
<path d="M1719 1071 c-21 -22 -29 -39 -29 -66 0 -51 44 -95 95 -95 51 0 95 44
95 95 0 27 -8 44 -29 66 -41 40 -91 40 -132 0z m96 -66 c0 -27 -3 -30 -30 -30
-21 0 -31 5 -33 18 -6 33 6 49 35 45 24 -3 28 -8 28 -33z"/>
</g>
</svg>
